<svg xmlns="http://www.w3.org/2000/svg" width="200" height="20" fill="none" viewBox="0 0 200 20"><path fill="#fff" d="M7.48 13.948h.396V0h2.904v15.4H5.104L3.3 1.452h-.396V15.4H0V0h5.676zM14.065 0h9.856v2.772h-6.952v3.52h6.82v2.772h-6.82V15.4h-2.904zM26.787 0h11.088v2.772h-4.092V15.4H30.88V2.772h-4.092zM53.025 0h5.104l.88 11.572v2.244h.528v-2.244L60.417 0h5.104v15.4h-2.64V5.104l.264-3.52h-.528L61.473 15.4h-4.356L55.929 1.584H55.4l.264 3.52V15.4h-2.64zM74.79 13.816q-.441 1.034-1.233 1.474-.792.418-1.847.418-.99 0-1.87-.374a4.4 4.4 0 0 1-1.519-1.1 5.5 5.5 0 0 1-1.055-1.76q-.375-1.034-.375-2.354v-.352q0-1.298.374-2.332t1.013-1.76 1.473-1.1a4.3 4.3 0 0 1 1.826-.396q1.167 0 1.87.396.726.396 1.144 1.232h.397v-1.32h2.772V12.1q0 .66.593.66h.419v2.64h-1.893q-.747 0-1.232-.44-.462-.44-.462-1.144zm-2.465-.748q1.211 0 1.936-.792.727-.814.727-2.2v-.264q0-1.386-.727-2.178-.725-.814-1.935-.814t-1.936.814q-.727.792-.727 2.178v.264q0 1.386.727 2.2.726.792 1.936.792M80.67 4.488h4.62v1.584h.396q.308-.901 1.034-1.386.749-.506 1.782-.506 1.628 0 2.618 1.034.99 1.012.99 3.102V8.8l-2.86.264v-.308q0-.902-.462-1.43-.462-.55-1.386-.55t-1.452.638-.528 1.826v3.52h2.508v2.64h-7.524v-2.64h2.244V7.128h-1.98zM98.32 8.492h.529l2.904-4.004h3.036v.132l-3.52 4.994v.396l3.872 5.258v.132h-3.168l-3.124-4.268h-.528V15.4h-2.772V0h2.772zM110.582 10.846q.022.484.22.902.22.396.572.704.374.286.836.462.484.154 1.012.154 1.034 0 1.584-.352.549-.375.792-.88l2.376 1.32a5 5 0 0 1-.55.88 3.9 3.9 0 0 1-.924.814q-.55.375-1.364.616-.793.242-1.87.242-1.233 0-2.244-.396a5.1 5.1 0 0 1-1.76-1.144 5.4 5.4 0 0 1-1.144-1.826q-.396-1.078-.396-2.442v-.132q0-1.254.418-2.288a5.3 5.3 0 0 1 1.188-1.76 5.3 5.3 0 0 1 1.738-1.122 5.6 5.6 0 0 1 2.156-.418q1.407 0 2.42.506 1.011.484 1.672 1.254a4.8 4.8 0 0 1 .968 1.672q.308.902.308 1.76v1.474zm2.618-4.158q-1.056 0-1.716.55-.66.528-.858 1.232h5.148q-.132-.77-.836-1.276-.682-.506-1.738-.506M121.302 4.488h3.234V0h2.772v4.488h3.938v2.64h-3.938V12.1q0 .66.594.66h2.948v2.64h-4.62q-.747 0-1.232-.484-.462-.484-.462-1.232V7.128h-3.234zM137.281 19.8h-2.772V4.488h2.772v1.584h.396a3.16 3.16 0 0 1 1.276-1.386q.836-.506 2.134-.506.968 0 1.826.374.88.374 1.518 1.1.66.705 1.034 1.738.396 1.035.396 2.354v.396q0 1.342-.374 2.376a5.4 5.4 0 0 1-1.012 1.76q-.638.705-1.518 1.078a4.9 4.9 0 0 1-1.87.352q-.748 0-1.298-.154a3.6 3.6 0 0 1-.968-.418 3.4 3.4 0 0 1-.682-.594 5.5 5.5 0 0 1-.462-.726h-.396zm2.904-6.732q1.298 0 2.09-.792.814-.814.814-2.2v-.264q0-1.386-.814-2.178-.792-.814-2.09-.814t-2.112.836q-.792.814-.792 2.156v.264q0 1.342.792 2.178.815.814 2.112.814M148.486 12.76h3.828V2.64h-3.696V0h6.468v12.76h3.564v2.64h-10.164zM169.084 13.816q-.44 1.034-1.232 1.474-.792.418-1.848.418-.99 0-1.87-.374a4.4 4.4 0 0 1-1.518-1.1 5.5 5.5 0 0 1-1.056-1.76q-.374-1.034-.374-2.354v-.352q0-1.298.374-2.332.375-1.034 1.012-1.76.639-.726 1.474-1.1a4.3 4.3 0 0 1 1.826-.396q1.167 0 1.87.396.727.396 1.144 1.232h.396v-1.32h2.772V12.1q0 .66.594.66h.418v2.64h-1.892q-.747 0-1.232-.44-.462-.44-.462-1.144zm-2.464-.748q1.21 0 1.936-.792.726-.814.726-2.2v-.264q0-1.386-.726-2.178-.726-.814-1.936-.814t-1.936.814q-.726.792-.726 2.178v.264q0 1.386.726 2.2.727.792 1.936.792M186.141 11.396q-.374 1.935-1.782 3.124-1.386 1.188-3.718 1.188a6.7 6.7 0 0 1-2.266-.374 5.3 5.3 0 0 1-1.804-1.078 4.9 4.9 0 0 1-1.21-1.738q-.44-1.034-.44-2.354V9.9q0-1.32.44-2.376a5.35 5.35 0 0 1 1.21-1.804 5.5 5.5 0 0 1 1.826-1.144 6.3 6.3 0 0 1 2.244-.396q2.288 0 3.696 1.188 1.43 1.188 1.804 3.124l-2.728.704a2.86 2.86 0 0 0-.836-1.672q-.703-.705-1.98-.704-.594 0-1.122.22a2.7 2.7 0 0 0-.924.638 3 3 0 0 0-.638.99q-.22.572-.22 1.298v.132q0 .726.22 1.298.242.55.638.924.396.375.924.572.528.176 1.122.176 1.276 0 1.936-.638.682-.637.88-1.716zM191.406 10.846q.022.484.22.902.22.396.572.704.374.286.836.462.484.154 1.012.154 1.034 0 1.584-.352.55-.375.792-.88l2.376 1.32a5 5 0 0 1-.55.88 3.9 3.9 0 0 1-.924.814q-.55.375-1.364.616-.792.242-1.87.242-1.231 0-2.244-.396a5.1 5.1 0 0 1-1.76-1.144 5.4 5.4 0 0 1-1.144-1.826q-.396-1.078-.396-2.442v-.132q0-1.254.418-2.288a5.3 5.3 0 0 1 1.188-1.76 5.3 5.3 0 0 1 1.738-1.122 5.6 5.6 0 0 1 2.156-.418q1.408 0 2.42.506 1.012.484 1.672 1.254.66.748.968 1.672.308.902.308 1.76v1.474zm2.618-4.158q-1.056 0-1.716.55-.66.528-.858 1.232h5.148q-.132-.77-.836-1.276-.682-.506-1.738-.506"/></svg>